# xmcd
#
# Track frame offsets:
#	150
#	23182
#	36510
#	45416
#	57388
#	64720
#	77764
#	94282
#	110620
#	126381
#	137648
#	149260
#	165915
#	177472
#	190993
#	203091
#
# Disc length: 2887 seconds
#
# Revision: 1
# Processed by: cddbd v1.5.2PL0 Copyright (c) Steve Scherf et al.
# Submitted via: audiograbber 1.83.01
#
DISCID=e70b4510
DTITLE=RAY CHARLES - Black Hits Collectión
DYEAR=1900
DGENRE=Blues
TTITLE0=What I Say
TTITLE1=TI Got a Woman
TTITLE2=The Right Time
TTITLE3=Honey Honey
TTITLE4=Ray Charles Blues
TTITLE5=Rocking chair blues
TTITLE6=In a little spanisn town
TTITLE7=You be my baby
TTITLE8=Roll with my baby
TTITLE9=From the heart
TTITLE10=I'am gonna move to the outskirts of town
TTITLE11=Strike up the band
TTITLE12=Baby let me hold your hand
TTITLE13=Mes around
TTITLE14=This love of mine
TTITLE15=???????
EXTD=
EXTT0=
EXTT1=
EXTT2=
EXTT3=
EXTT4=
EXTT5=
EXTT6=
EXTT7=
EXTT8=
EXTT9=
EXTT10=
EXTT11=
EXTT12=
EXTT13=
EXTT14=
EXTT15=
PLAYORDER=
